<?xml version="1.0" encoding="UTF-8" standalone="no"?>
<svg
   xmlns:dc="http://purl.org/dc/elements/1.1/"
   xmlns:cc="http://creativecommons.org/ns#"
   xmlns:rdf="http://www.w3.org/1999/02/22-rdf-syntax-ns#"
   xmlns:svg="http://www.w3.org/2000/svg"
   xmlns="http://www.w3.org/2000/svg"
   version="1.1"
   id="svg2196"
   width="100"
   height="100"
   viewBox="0 0 99.999994 99.999994">
  <metadata
     id="metadata2202">
    <rdf:RDF>
      <cc:Work
         rdf:about="">
        <dc:format>image/svg+xml</dc:format>
        <dc:type
           rdf:resource="http://purl.org/dc/dcmitype/StillImage" />
        <dc:title></dc:title>
      </cc:Work>
    </rdf:RDF>
  </metadata>
  <defs
     id="defs2200" />
  <path
     id="path2769"
     style="fill:#dd5597;fill-opacity:1;stroke-width:1.08066"
     d="M 49.813304,1.6283274e-4 C 34.676602,0.04056993 19.350606,7.5634939 10.019333,19.960779 -12.583954,49.990911 5.1347106,93.520861 42.377168,99.454665 59.573577,102.19454 78.958933,94.413535 89.512621,80.535357 113.01069,49.635244 94.900543,6.0041168 56.270376,0.44918073 54.133719,0.14193403 51.975689,-0.00560957 49.813304,1.6283274e-4 Z M 48.803184,6.9614168 c 1.24542,-0.020405 2.502606,0.01364 3.766873,0.1019152 11.90943,0.8315523 19.380335,4.218642 27.758317,12.585793 8.377986,8.36715 11.77094,15.829869 12.603564,27.723899 C 94.34853,67.60891 81.691571,85.598197 61.921425,91.447673 54.356132,93.686047 44.491669,93.573019 36.976062,91.161126 14.520911,83.954863 1.8514006,60.380295 8.4235506,38.033748 13.844098,19.602871 30.12188,7.267486 48.803184,6.9614168 Z" />
  <path
     id="path2771"
     d="M 44.492322,85.730909 C 17.584569,81.443728 4.7828013,49.993725 21.113724,28.29689 28.818713,18.060244 42.180239,12.423289 54.530153,14.19918 82.440531,18.212633 95.525622,49.736212 78.548216,72.061608 70.923153,82.088627 56.916765,87.710482 44.492322,85.730909 Z M 58.047773,77.981172 C 71.394564,74.032204 79.939502,61.887541 78.983163,48.226328 78.421056,40.196689 76.130898,35.158884 70.474937,29.510235 64.818975,23.861585 59.774647,21.57439 51.734611,21.013011 38.078539,20.059503 25.834545,28.649165 21.931182,41.92133 c -4.436847,15.086116 4.116598,31.001144 19.276032,35.866078 5.073775,1.628269 11.733243,1.704891 16.840559,0.193764 z"
     style="fill:#dd5597;fill-opacity:1;stroke-width:0.729551" />
</svg>
