<?xml version="1.0" encoding="UTF-8" standalone="no"?>
<svg
   xmlns:dc="http://purl.org/dc/elements/1.1/"
   xmlns:cc="http://creativecommons.org/ns#"
   xmlns:rdf="http://www.w3.org/1999/02/22-rdf-syntax-ns#"
   xmlns:svg="http://www.w3.org/2000/svg"
   xmlns="http://www.w3.org/2000/svg"
   xmlns:sodipodi="http://sodipodi.sourceforge.net/DTD/sodipodi-0.dtd"
   xmlns:inkscape="http://www.inkscape.org/namespaces/inkscape"
   inkscape:version="1.0 (4035a4f, 2020-05-01)"
   sodipodi:docname="icon.svg"
   viewBox="0 0 100 100"
   height="100"
   width="100"
   id="svg2302"
   version="1.1">
  <metadata
     id="metadata2308">
    <rdf:RDF>
      <cc:Work
         rdf:about="">
        <dc:format>image/svg+xml</dc:format>
        <dc:type
           rdf:resource="http://purl.org/dc/dcmitype/StillImage" />
        <dc:title></dc:title>
      </cc:Work>
    </rdf:RDF>
  </metadata>
  <defs
     id="defs2306" />
  <sodipodi:namedview
     inkscape:current-layer="svg2302"
     inkscape:window-maximized="1"
     inkscape:window-y="23"
     inkscape:window-x="0"
     inkscape:cy="44.373957"
     inkscape:cx="31.267868"
     inkscape:zoom="5.0992001"
     fit-margin-bottom="0"
     fit-margin-right="0"
     fit-margin-left="0"
     fit-margin-top="0"
     showgrid="false"
     id="namedview2304"
     inkscape:window-height="1035"
     inkscape:window-width="1920"
     inkscape:pageshadow="2"
     inkscape:pageopacity="0"
     guidetolerance="10"
     gridtolerance="10"
     objecttolerance="10"
     borderopacity="1"
     bordercolor="#666666"
     pagecolor="#ffffff"
     inkscape:document-rotation="0" />
  <rect
     ry="0"
     y="0"
     x="0"
     height="100"
     width="100"
     id="rect2158"
     style="fill:#ffffff;fill-opacity:1;stroke:none;stroke-width:46.2039;stroke-linecap:round;stroke-linejoin:round" />
  <g
     id="g2963-2-8-8"
     transform="matrix(0.61350871,0,0,0.61341667,90.783965,-2.1533686)">
    <path
       sodipodi:nodetypes="ccccssssssssssscssssssscccsscssscsccccssssssss"
       style="fill:#f2f2f2;stroke-width:0.159204"
       d="M -134.94808,85.059248 V 16.561903 h 68.496919 68.4969214 l -7.9590056,7.9602 c -4.3774528,4.378109 -8.0194908,7.960199 -8.0934148,7.960199 -0.07392,0 -0.504045,-0.310839 -0.955821,-0.690754 -3.163613,-2.660396 -6.86861,-3.919134 -10.972437,-3.727785 -2.274635,0.106058 -4.051823,0.557476 -6.087782,1.546337 -1.870087,0.908295 -3.284805,1.94321 -4.642952,3.396479 -1.750776,1.873394 -2.89267,3.87968 -3.643237,6.401097 -0.524211,1.761013 -0.70646,4.947895 -0.394081,6.891077 0.420211,2.613949 1.865103,5.709219 3.544879,7.593882 0.416505,0.467308 0.757281,0.910039 0.757281,0.983844 0,0.07381 -4.25586,4.389601 -9.457466,9.590656 l -9.457465,9.456464 -0.930595,-0.803038 c -1.9568,-1.68858 -4.058056,-2.761237 -6.692669,-3.416502 -2.071532,-0.515217 -5.280443,-0.484526 -7.374084,0.07053 -5.707633,1.51318 -9.904139,5.709216 -11.423585,11.422309 -0.342703,1.288554 -0.402732,1.858356 -0.402732,3.822723 0,1.964368 0.06003,2.53417 0.402732,3.822724 0.667488,2.509744 1.954046,4.947275 3.491713,6.615446 l 0.669419,0.726235 -8.454271,8.454274 -8.454274,8.45427 -0.848911,-0.76368 c -1.854209,-1.66805 -4.230507,-2.95556 -6.659862,-3.6084 -1.13532,-0.3051 -1.76341,-0.36477 -3.90049,-0.37057 -2.17774,-0.006 -2.74358,0.0464 -3.9005,0.36053 -1.71382,0.46535 -4.25132,1.67611 -5.50639,2.62735 -3.07547,2.33094 -5.25158,5.77421 -6.051,9.57449 -0.30421,1.44619 -0.30391,4.62066 6.4e-4,6.06817 0.61133,2.90615 1.94664,5.54418 3.79629,7.49991 l 0.8178,0.86471 -9.10576,9.10575 -9.10581,9.10576 z m 33.3185,-26.208297 c 13.451097,-4.040238 15.523452,-21.89518 3.348492,-28.849817 -2.436352,-1.391703 -5.393522,-2.076167 -8.370252,-1.937371 -4.16341,0.194127 -7.82543,1.882622 -10.74189,4.95289 -3.93935,4.147113 -5.24538,10.296004 -3.37707,15.899529 1.41895,4.255789 5.1702,8.027088 9.54361,9.594623 2.02854,0.727075 3.03764,0.870168 5.73135,0.812718 2.10993,-0.045 2.67033,-0.113506 3.86576,-0.472572 z"
       id="path2969-2-5-3" />
    <path
       style="fill:#ef6c0c;stroke-width:0.159204"
       d="m -146.18709,164.58182 -0.30328,-0.35821 0.35821,0.30328 c 0.19701,0.1668 0.35821,0.32799 0.35821,0.35821 0,0.1274 -0.12813,0.0333 -0.41314,-0.30328 z m 159.21912,0.0398 c 0.158488,-0.17513 0.32398,-0.31841 0.367761,-0.31841 0.04378,0 -0.05007,0.14328 -0.208557,0.31841 -0.158488,0.17512 -0.32398,0.31841 -0.367761,0.31841 -0.04378,0 0.05007,-0.14329 0.208557,-0.31841 z m -138.84172,-20.20307 9.05775,-9.0588 1.05118,0.87279 c 1.28287,1.06514 4.06207,2.45311 5.90691,2.94998 1.78103,0.47969 5.83747,0.51778 7.48259,0.0703 5.933174,-1.61398 9.991518,-5.58755 11.569366,-11.32768 0.389471,-1.41687 0.436871,-1.8548 0.4308,-3.9801 -0.0059,-2.05488 -0.06454,-2.6037 -0.420486,-3.9336 -0.531657,-1.98639 -1.523041,-4.00874 -2.762623,-5.63555 l -0.983352,-1.29055 8.461256,-8.45049 8.461256,-8.450502 0.716418,0.633865 c 1.89387,1.675634 4.5875,3.02979 7.122714,3.580767 1.663981,0.36163 4.798233,0.35857 6.489228,-0.006 2.927936,-0.631826 5.630655,-2.119519 7.810218,-4.299084 2.652606,-2.652605 4.092054,-5.664744 4.537298,-9.494589 0.483804,-4.161532 -0.968982,-8.718983 -3.807209,-11.943378 l -0.635781,-0.722287 9.531463,-9.541401 9.531462,-9.541402 0.754202,0.688901 c 1.551997,1.417622 3.706791,2.599422 6.037731,3.311402 1.318201,0.402641 1.63296,0.435352 4.210768,0.437594 2.37299,0.0021 2.969803,-0.04863 4.025279,-0.341951 5.112833,-1.420857 9.216222,-5.244364 10.888367,-10.145698 1.7530943,-5.138615 0.7450942,-10.721014 -2.712692,-15.023148 l -0.977072,-1.215655 8.0000008,-7.958429 8.0000007,-7.95843 V 85.061192 153.47734 H -66.45004 -134.86743 Z m 104.533259,-5.25918 c 2.816211,-0.73571 5.196223,-2.13444 7.323384,-4.30395 5.9841678,-6.1033 5.9160937,-15.91314 -0.152536,-21.98177 -2.014542,-2.01454 -4.389059,-3.36995 -7.302123,-4.16815 -1.839918,-0.50416 -5.780092,-0.49745 -7.66972,0.013 -5.519646,1.49119 -9.820088,5.75876 -11.332973,11.24635 -0.300764,1.09093 -0.350784,1.67327 -0.348706,4.0597 0.0022,2.57781 0.03495,2.89257 0.437594,4.21077 0.771996,2.52742 1.936983,4.57074 3.650138,6.4021 2.262425,2.41854 5.21132,4.06084 8.549171,4.76122 1.576871,0.33086 5.13998,0.20631 6.845771,-0.23932 z M -82.226424,85.974844 c 0,-0.218905 0.03614,-0.308457 0.0803,-0.199005 0.04417,0.109453 0.04417,0.288558 0,0.39801 -0.04416,0.109453 -0.0803,0.0199 -0.0803,-0.199005 z m -0.01256,-2.003316 c 0.0076,-0.185465 0.04536,-0.223188 0.09619,-0.09619 0.04599,0.114924 0.04033,0.252239 -0.01256,0.305141 -0.0529,0.0529 -0.09053,-0.04113 -0.08362,-0.208955 z m 14.594391,-14.659337 c 0.109453,-0.04416 0.288557,-0.04416 0.39801,0 0.109453,0.04417 0.0199,0.0803 -0.199005,0.0803 -0.218905,0 -0.308458,-0.03614 -0.199005,-0.0803 z m 1.910448,0 c 0.109453,-0.04416 0.288557,-0.04416 0.39801,0 0.109453,0.04417 0.0199,0.0803 -0.199005,0.0803 -0.218906,0 -0.308458,-0.03614 -0.199005,-0.0803 z M 13.016906,5.3778223 12.713622,5.0196133 13.071831,5.322895 c 0.197015,0.1668049 0.358209,0.327999 0.358209,0.358209 0,0.1274035 -0.128127,0.033346 -0.413134,-0.3032817 z"
       id="path2967-5-7-1" />
    <path
       style="fill:#020101;stroke-width:0.159204"
       d="m -143.06749,166.31555 c -2.38369,-0.64893 -4.27669,-2.62066 -4.7755,-4.97414 -0.11317,-0.53395 -0.15183,-24.75122 -0.12272,-76.879004 l 0.0425,-76.0995088 0.35624,-0.7720118 c 0.87426,-1.894589 2.31181,-3.1958013 4.16938,-3.7739425 0.98024,-0.3050834 2.14159,-0.3097086 76.802005,-0.3058756 50.507383,0.00259 76.0397206,0.057608 76.5048829,0.1648473 2.3655581,0.5453565 4.3979721,2.5740947 4.9414471,4.9325186 0.228139,0.9899891 0.228139,151.8323868 0,152.8223768 -0.543475,2.35843 -2.575889,4.38716 -4.9414471,4.93252 -1.1014529,0.25393 -152.0416779,0.20679 -152.9767879,-0.0478 z M 1.9673525,85.01962 V 16.561903 H -66.490365 -134.94808 V 85.01962 153.47734 H -66.490365 1.9673525 Z M -108.83863,139.39944 c -2.06816,-0.43547 -4.42735,-1.42197 -6.02888,-2.52097 -1.08035,-0.74137 -2.80105,-2.43095 -3.67146,-3.60506 -0.99685,-1.34468 -2.13455,-3.6964 -2.58738,-5.34831 -0.29574,-1.07885 -0.34913,-1.68756 -0.34913,-3.9801 0,-2.28206 0.0538,-2.9008 0.34314,-3.94568 1.42347,-5.14069 5.21004,-9.20493 10.14446,-10.88837 8.61499,-2.93909 17.887682,2.05078 20.2563,10.90045 0.355951,1.3299 0.414616,1.87872 0.420486,3.9336 0.0061,2.1253 -0.04133,2.56323 -0.4308,3.9801 -1.558946,5.67137 -5.546251,9.63078 -11.330566,11.25129 -1.46966,0.41173 -5.27442,0.53716 -6.76617,0.22305 z m 80.716428,-7.9e-4 c -3.337851,-0.70034 -6.286746,-2.34264 -8.549171,-4.76118 -1.713155,-1.83136 -2.878142,-3.87468 -3.650138,-6.4021 -0.402641,-1.3182 -0.435353,-1.63296 -0.437594,-4.21077 -0.0021,-2.38643 0.04794,-2.96877 0.348706,-4.0597 1.250862,-4.53717 4.406879,-8.27504 8.669894,-10.26831 2.29445,-1.07282 3.632661,-1.34496 6.563576,-1.33478 2.075869,0.007 2.773399,0.0708 3.769223,0.34369 2.913064,0.7982 5.287581,2.15361 7.302123,4.16815 5.1347534,5.13476 6.0627678,12.97357 2.284615,19.29787 -0.914565,1.53091 -3.025086,3.75566 -4.501221,4.74486 -1.410472,0.94519 -3.353129,1.82472 -4.954242,2.24299 -1.705791,0.44563 -5.2689,0.57018 -6.845771,0.23932 z m -39.800999,-38.71614 c -2.594126,-0.31627 -5.229557,-1.245112 -7.16649,-2.525799 -1.409148,-0.93172 -3.509009,-2.985457 -4.331178,-4.236049 -1.864049,-2.835376 -2.714906,-5.619024 -2.720718,-8.901042 -0.0048,-2.73418 0.477082,-4.701515 1.771601,-7.232126 1.543383,-3.0171 3.821812,-5.249397 6.954247,-6.813439 2.268358,-1.132604 4.299543,-1.602657 6.925374,-1.602657 3.275452,0 6.072641,0.854584 8.901041,2.719405 1.262544,0.832418 3.32567,2.93451 4.225403,4.305204 3.413641,5.200497 3.412971,12.05662 -0.0017,17.247227 -0.986032,1.498863 -3.008287,3.519036 -4.515008,4.510361 -1.442767,0.949246 -3.663209,1.880175 -5.272509,2.210505 -1.270562,0.26081 -3.837236,0.43213 -4.770076,0.31841 z M -109.15704,59.086223 c -6.17398,-1.368228 -10.85957,-6.107597 -12.13553,-12.274821 -0.40612,-1.962918 -0.32738,-5.176059 0.17278,-7.050895 1.49583,-5.60711 5.98059,-9.940825 11.76577,-11.369505 1.67414,-0.413439 5.29406,-0.375252 7.08643,0.07476 3.688921,0.926174 6.940825,3.115097 9.076884,6.109834 1.031473,1.446117 2.102787,3.766991 2.528854,5.478461 0.528987,2.124891 0.495392,5.441239 -0.07699,7.599832 -1.298184,4.895796 -5.005227,9.05288 -9.571028,10.732969 -1.80555,0.664394 -2.918,0.864142 -5.18547,0.931095 -1.86202,0.05498 -2.57017,0.01017 -3.6617,-0.231727 z m 81.299076,0.144135 c -2.001133,-0.360201 -4.60995,-1.431406 -6.273511,-2.575965 -1.066635,-0.733865 -2.709082,-2.32766 -3.581666,-3.475571 -1.016779,-1.337605 -2.237692,-3.856706 -2.700606,-5.57214 -0.31015,-1.149338 -0.364673,-1.737038 -0.36186,-3.900498 0.0028,-2.152516 0.06005,-2.756974 0.369425,-3.900498 1.243821,-4.597461 4.482347,-8.446597 8.725333,-10.370459 0.569135,-0.258057 1.728032,-0.659582 2.575325,-0.892276 2.10411,-0.577855 5.425078,-0.611789 7.554358,-0.07719 10.756144,2.700536 15.4801178,14.970768 9.299873,24.155849 -0.838504,1.246185 -2.790708,3.189381 -4.070896,4.052112 -1.36344,0.918838 -3.397739,1.855443 -4.909063,2.260165 -1.385909,0.371138 -5.251181,0.544067 -6.626712,0.296473 z"
       id="path2965-9-0-1" />
  </g>
</svg>
