<?xml version="1.0" encoding="UTF-8" standalone="no"?>
<svg
   xmlns:dc="http://purl.org/dc/elements/1.1/"
   xmlns:cc="http://creativecommons.org/ns#"
   xmlns:rdf="http://www.w3.org/1999/02/22-rdf-syntax-ns#"
   xmlns:svg="http://www.w3.org/2000/svg"
   xmlns="http://www.w3.org/2000/svg"
   xmlns:sodipodi="http://sodipodi.sourceforge.net/DTD/sodipodi-0.dtd"
   xmlns:inkscape="http://www.inkscape.org/namespaces/inkscape"
   inkscape:version="1.0 (4035a4f, 2020-05-01)"
   sodipodi:docname="layer-icon2.svg"
   viewBox="0 0 100 100"
   height="100"
   width="100"
   id="svg2302"
   version="1.1">
  <metadata
     id="metadata2308">
    <rdf:RDF>
      <cc:Work
         rdf:about="">
        <dc:format>image/svg+xml</dc:format>
        <dc:type
           rdf:resource="http://purl.org/dc/dcmitype/StillImage" />
        <dc:title></dc:title>
      </cc:Work>
    </rdf:RDF>
  </metadata>
  <defs
     id="defs2306" />
  <sodipodi:namedview
     inkscape:current-layer="svg2302"
     inkscape:window-maximized="1"
     inkscape:window-y="23"
     inkscape:window-x="0"
     inkscape:cy="92.690885"
     inkscape:cx="128.78128"
     inkscape:zoom="1.4256486"
     fit-margin-bottom="0"
     fit-margin-right="0"
     fit-margin-left="0"
     fit-margin-top="0"
     showgrid="false"
     id="namedview2304"
     inkscape:window-height="1035"
     inkscape:window-width="1920"
     inkscape:pageshadow="2"
     inkscape:pageopacity="0"
     guidetolerance="10"
     gridtolerance="10"
     objecttolerance="10"
     borderopacity="1"
     bordercolor="#666666"
     pagecolor="#ffffff"
     inkscape:document-rotation="0" />
  <rect
     ry="16.887417"
     y="0"
     x="0"
     height="100"
     width="100"
     id="rect2336"
     style="fill:#ffffff;fill-opacity:0.5;stroke:none;stroke-width:0.421003" />
  <path
     d="m 50.003906,13.649089 c -0.152136,0 -9.464,4.124534 -20.693359,9.166015 -13.194871,5.923908 -20.5848678,9.349516 -20.8906251,9.684245 -0.636897,0.697241 -0.5993043,1.451277 0.1054687,2.127604 0.3565886,0.342197 8.3161274,4.03808 20.7643224,9.641277 11.102397,4.997423 20.38339,9.094266 20.62435,9.104166 0.72531,0.0298 41.127099,-18.222123 41.668619,-18.82422 0.60189,-0.66922 0.60189,-1.390025 0,-2.046223 C 91.279309,32.171209 83.785722,28.696114 70.695313,22.817057 59.467246,17.774399 50.156046,13.649089 50.003906,13.649089 Z M 19.779948,43.7181 c -0.511734,0 -11.1288938,4.90342 -11.4648441,5.29492 -0.5141816,0.599206 -0.4664086,1.564846 0.104818,2.111329 0.2602123,0.248944 9.5571071,4.543214 20.6595051,9.542317 11.593856,5.220393 20.462239,9.096437 20.834636,9.10677 0.81417,0.0226 41.238256,-18.103813 41.774086,-18.73177 0.471133,-0.552137 0.471133,-1.479603 0,-2.028646 -0.33572,-0.39123 -10.952853,-5.29492 -11.46419,-5.29492 -0.121026,0 -6.663063,2.905366 -14.537763,6.456379 -14.023633,6.32381 -14.346187,6.456067 -15.684893,6.459634 -1.34474,0.0036 -1.59733,-0.100497 -15.683597,-6.45638 C 26.443322,46.624723 19.90129,43.7181 19.779948,43.7181 Z m 0,16.577473 c -0.511735,0 -11.1288938,4.90342 -11.4648441,5.29492 -0.514182,0.599206 -0.4664086,1.564843 0.104818,2.11133 0.2602123,0.24894 9.5571071,4.543213 20.6595051,9.542316 11.593856,5.220394 20.462236,9.096447 20.834636,9.10677 0.81417,0.0226 41.238256,-18.103813 41.774086,-18.73177 0.471133,-0.552136 0.471133,-1.479603 0,-2.028646 -0.33572,-0.39123 -10.952853,-5.29492 -11.46419,-5.29492 -0.121026,0 -6.663713,2.905366 -14.538413,6.45638 -14.023633,6.32381 -14.345537,6.456083 -15.684243,6.459636 -1.34474,0.0036 -1.59733,-0.1005 -15.683597,-6.456383 -7.874384,-3.55301 -14.416416,-6.459633 -14.537758,-6.459633 z"
     style="fill:#010101;stroke-width:0.210273"
     id="path2316" />
</svg>
