<?xml version="1.0" encoding="UTF-8" standalone="no"?>
<svg
   xmlns:dc="http://purl.org/dc/elements/1.1/"
   xmlns:cc="http://creativecommons.org/ns#"
   xmlns:rdf="http://www.w3.org/1999/02/22-rdf-syntax-ns#"
   xmlns:svg="http://www.w3.org/2000/svg"
   xmlns="http://www.w3.org/2000/svg"
   version="1.1"
   id="svg3455"
   viewBox="0 0 93.750001 93.750001"
   height="100"
   width="100">
  <defs
     id="defs3457" />
  <metadata
     id="metadata3460">
    <rdf:RDF>
      <cc:Work
         rdf:about="">
        <dc:format>image/svg+xml</dc:format>
        <dc:type
           rdf:resource="http://purl.org/dc/dcmitype/StillImage" />
        <dc:title></dc:title>
      </cc:Work>
    </rdf:RDF>
  </metadata>
  <path
     id="path4337-3"
     d="m 28.022917,9.9484751 c -4.007848,4.2773639 -6.518214,10.5082739 -6.420736,16.3690989 0.203663,12.247384 5.724065,16.883656 14.552394,33.739878 3.180114,7.417418 6.499218,15.265992 9.655956,28.264883 0.438707,1.917435 0.866558,3.698459 1.06447,3.852764 0.197751,0.154493 0.625764,-1.632926 1.064444,-3.55036 C 51.09621,75.62582 54.415314,67.783507 57.595428,60.366089 66.423757,43.509867 71.944214,38.873568 72.147822,26.626184 72.245354,20.765359 69.728701,14.528243 65.720881,10.250878 61.14259,5.3647039 54.237096,1.7485702 46.875001,1.5973818 39.51288,1.4461129 32.601206,5.0623004 28.022917,9.9484751 Z"
     style="display:inline;fill:#ff4646;fill-opacity:1;stroke:#d73534;stroke-width:3.18549;stroke-miterlimit:4;stroke-dasharray:none;stroke-opacity:1" />
  <circle
     r="9.6695099"
     cy="26.772852"
     cx="46.875"
     id="path3049"
     style="display:inline;fill:#590000;fill-opacity:1;stroke-width:0" />
</svg>
