<?xml version="1.0" encoding="UTF-8" standalone="no"?>
<svg
   xmlns:dc="http://purl.org/dc/elements/1.1/"
   xmlns:cc="http://creativecommons.org/ns#"
   xmlns:rdf="http://www.w3.org/1999/02/22-rdf-syntax-ns#"
   xmlns:svg="http://www.w3.org/2000/svg"
   xmlns="http://www.w3.org/2000/svg"
   xmlns:sodipodi="http://sodipodi.sourceforge.net/DTD/sodipodi-0.dtd"
   xmlns:inkscape="http://www.inkscape.org/namespaces/inkscape"
   width="100"
   height="100"
   viewBox="0 0 100 100"
   id="svg3455"
   version="1.1"
   inkscape:version="1.0 (4035a4f, 2020-05-01)"
   sodipodi:docname="units-icon.svg">
  <metadata
     id="metadata837">
    <rdf:RDF>
      <cc:Work
         rdf:about="">
        <dc:format>image/svg+xml</dc:format>
        <dc:type
           rdf:resource="http://purl.org/dc/dcmitype/StillImage" />
        <dc:title></dc:title>
      </cc:Work>
    </rdf:RDF>
  </metadata>
  <defs
     id="defs3457" />
  <sodipodi:namedview
     guidetolerance="12"
     gridtolerance="10"
     objecttolerance="19.8"
     inkscape:pagecheckerboard="true"
     id="base"
     pagecolor="#ffffff"
     bordercolor="#666666"
     borderopacity="1.0"
     inkscape:pageopacity="0.0"
     inkscape:pageshadow="2"
     inkscape:zoom="5.5389589"
     inkscape:cx="46.752292"
     inkscape:cy="35.045368"
     inkscape:document-units="px"
     inkscape:current-layer="svg3455"
     showgrid="true"
     inkscape:window-width="1680"
     inkscape:window-height="1035"
     inkscape:window-x="3504"
     inkscape:window-y="23"
     inkscape:window-maximized="0"
     fit-margin-top="0"
     fit-margin-left="0"
     fit-margin-right="0"
     fit-margin-bottom="0"
     inkscape:document-rotation="0"
     units="px" />
  <path
     d="m 13.248911,13.249708 v 30.984731 h 3.10619 v -8.896871 l 2.198199,-2.578622 6.1083,11.475493 h 3.825763 L 20.751498,30.115724 27.791117,21.789486 H 23.75361 l -7.398509,9.130151 V 13.249708 Z m 26.0823,8.031949 c -1.155438,0 -2.220063,0.316977 -3.192323,0.951058 -0.972259,0.634082 -1.768419,1.536499 -2.38841,2.706027 v -3.149256 h -2.790366 v 22.444953 h 3.107983 V 32.588473 c 0,-3.043592 0.408347,-5.135631 1.225609,-6.276978 0.83135,-1.155438 1.959372,-1.733437 3.382533,-1.733437 1.000441,0 1.781715,0.380371 2.345344,1.141269 0.577719,0.760898 0.866718,2.07166 0.866718,3.931635 v 14.583477 h 3.127723 V 31.194188 c 0,-2.282694 0.423232,-3.953296 1.268674,-5.010099 0.845443,-1.070893 1.938044,-1.606031 3.276663,-1.606031 0.648172,0 1.231818,0.184537 1.753175,0.550895 0.521356,0.366359 0.894284,0.88661 1.119736,1.562964 0.239542,0.662263 0.360683,1.797727 0.360683,3.404068 v 14.138454 h 3.106189 V 28.827311 c 0,-2.634962 -0.50716,-4.551701 -1.521691,-5.749411 -1.014531,-1.19771 -2.401782,-1.796244 -4.163119,-1.796243 -1.155439,0 -2.212622,0.330066 -3.17079,0.992331 -0.944077,0.648171 -1.783099,1.628869 -2.515816,2.939305 -0.380449,-1.282255 -1.021841,-2.25551 -1.923648,-2.917772 -0.887714,-0.676355 -1.978522,-1.013864 -3.274867,-1.013864 z m 44.147006,7.405687 A 3.2638866,3.2638866 0 0 0 81.507913,29.36385 L 14.513997,80.87527 a 3.2638866,3.2638866 0 0 0 -0.599346,4.577636 3.2638866,3.2638866 0 0 0 4.579431,0.599345 L 85.487998,34.537244 a 3.2638866,3.2638866 0 0 0 0.597552,-4.575842 3.2638866,3.2638866 0 0 0 -2.607333,-1.274058 z m 0.165089,27.078217 v 4.374863 h 3.106189 v -4.374863 z m -21.179868,8.030154 c -1.155438,0 -2.21827,0.316976 -3.190528,0.951057 -0.972258,0.634082 -1.768419,1.536499 -2.38841,2.706028 v -3.149257 h -2.790367 v 22.446749 h 3.107984 V 75.104326 c 0,-3.043593 0.408348,-5.135633 1.225608,-6.276979 0.831352,-1.155438 1.957579,-1.733437 3.38074,-1.733437 1.00044,0 1.783509,0.38037 2.347137,1.141269 0.577719,0.760898 0.866718,2.071662 0.866718,3.931635 v 14.583478 h 3.127723 V 73.71004 c 0,-2.282694 0.423232,-3.953296 1.268675,-5.010099 0.845443,-1.070893 1.936251,-1.606031 3.274867,-1.606031 0.648173,0 1.233614,0.182743 1.75497,0.549101 0.521356,0.366358 0.894285,0.888406 1.119736,1.564759 0.239542,0.662264 0.358889,1.795932 0.358889,3.402273 v 14.140249 h 3.107984 V 71.341369 c 0,-2.634962 -0.507161,-4.549907 -1.521691,-5.747617 -1.014532,-1.197709 -2.403576,-1.798037 -4.164915,-1.798037 -1.155437,0 -2.210826,0.331861 -3.168994,0.994124 -0.944077,0.648173 -1.783098,1.627077 -2.515816,2.937511 -0.380449,-1.282254 -1.021842,-2.253713 -1.923649,-2.915977 -0.887713,-0.676354 -1.980317,-1.015658 -3.276661,-1.015658 z m 21.179868,0.507828 v 22.446749 h 3.106189 V 64.303543 Z"
     style="opacity:1;fill:#000000;stroke-width:0.918757"
     id="path932" />
</svg>
